<svg width="20" height="20" viewBox="0 0 20 20" fill="none" xmlns="http://www.w3.org/2000/svg">
<path d="M6.49167 11.8417C6.65 11.9917 6.86667 12.0833 7.08333 12.0833C7.3 12.0833 7.51667 11.9917 7.675 11.8417L7.775 11.7167C7.80834 11.6667 7.83333 11.6167 7.85 11.5667C7.875 11.5167 7.89167 11.4667 7.9 11.4167C7.90834 11.3584 7.91667 11.3 7.91667 11.25C7.91667 11.0333 7.825 10.8167 7.675 10.6583C7.35833 10.35 6.8 10.35 6.49167 10.6583C6.41667 10.7417 6.35834 10.8333 6.31667 10.9333C6.275 11.0333 6.25 11.1417 6.25 11.25C6.25 11.475 6.34167 11.6833 6.49167 11.8417Z" fill="white"/>
<path d="M10 12.0833C9.89167 12.0833 9.78334 12.0584 9.68334 12.0167C9.575 11.975 9.49167 11.9167 9.40833 11.8417C9.25833 11.6833 9.16667 11.475 9.16667 11.25C9.16667 11.1417 9.19167 11.0333 9.23334 10.9333C9.275 10.8333 9.33333 10.7417 9.40833 10.6584C9.49167 10.5834 9.575 10.525 9.68334 10.4833C9.99167 10.3583 10.3583 10.425 10.5917 10.6584C10.7417 10.8167 10.8333 11.0333 10.8333 11.25C10.8333 11.3 10.825 11.3584 10.8167 11.4167C10.8083 11.4667 10.7917 11.5167 10.7667 11.5667C10.75 11.6167 10.725 11.6667 10.6917 11.7167C10.675 11.7444 10.6509 11.7722 10.6269 11.8C10.6148 11.8138 10.6028 11.8278 10.5917 11.8417C10.4333 11.9917 10.2167 12.0833 10 12.0833Z" fill="white"/>
<path d="M6.76667 14.9334C6.86667 14.975 6.975 15 7.08333 15C7.19167 15 7.3 14.975 7.4 14.9334C7.50833 14.8917 7.6 14.8334 7.675 14.7584C7.75 14.6834 7.80833 14.5917 7.85 14.4834C7.89167 14.3834 7.91667 14.275 7.91667 14.1667C7.91667 14.0584 7.89167 13.95 7.85 13.85C7.80833 13.7417 7.75 13.65 7.675 13.575C7.6 13.5 7.50833 13.4417 7.4 13.4C7.2 13.3084 6.96667 13.3167 6.76667 13.4C6.65834 13.4417 6.56667 13.5 6.49167 13.575C6.41667 13.65 6.35834 13.7417 6.31667 13.85C6.275 13.95 6.25 14.0584 6.25 14.1667C6.25 14.275 6.275 14.3834 6.31667 14.4834C6.35834 14.5917 6.41667 14.6834 6.49167 14.7584C6.56667 14.8334 6.65834 14.8917 6.76667 14.9334Z" fill="white"/>
<path d="M14.5249 17.2833C14.3666 17.2833 14.2082 17.225 14.0832 17.1L13.2582 16.275C13.0166 16.0333 13.0166 15.6333 13.2582 15.3917C13.4999 15.15 13.8999 15.15 14.1416 15.3917L14.5416 15.7917L15.8749 14.5583C16.1249 14.325 16.5249 14.3417 16.7582 14.5917C16.9916 14.8417 16.9749 15.2417 16.7249 15.475L14.9499 17.1167C14.8249 17.225 14.6749 17.2833 14.5249 17.2833Z" fill="white"/>
<path fill-rule="evenodd" clip-rule="evenodd" d="M6.04167 2.3177V1.66667C6.04167 1.32501 6.325 1.04167 6.66667 1.04167C7.00833 1.04167 7.29167 1.32501 7.29167 1.66667V2.29167H12.7083V1.66667C12.7083 1.32501 12.9917 1.04167 13.3333 1.04167C13.675 1.04167 13.9583 1.32501 13.9583 1.66667V2.3177C16.6135 2.54532 18.125 4.2565 18.125 7.08334V13.4091C18.6657 14.1086 18.9583 14.957 18.9583 15.8333C18.9583 16.5583 18.7583 17.2667 18.3833 17.875C17.6833 19.0583 16.3833 19.7917 15 19.7917C14.1085 19.7917 13.2587 19.499 12.5782 18.9583H6.66667C3.625 18.9583 1.875 17.2083 1.875 14.1667V7.08334C1.875 4.2565 3.38653 2.54532 6.04167 2.3177ZM6.66667 4.79167C6.325 4.79167 6.04167 4.50834 6.04167 4.16667V3.57096C4.12124 3.76047 3.16506 4.87118 3.12623 6.94998H16.8738C16.8349 4.87118 15.8788 3.76047 13.9583 3.57096V4.16667C13.9583 4.50834 13.675 4.79167 13.3333 4.79167C12.9917 4.79167 12.7083 4.50834 12.7083 4.16667V3.54167H7.29167V4.16667C7.29167 4.50834 7.00833 4.79167 6.66667 4.79167ZM11.0417 15.8333C11.0417 13.65 12.8167 11.875 15 11.875C15.1644 11.875 15.3278 11.8854 15.4892 11.9056C15.9765 11.9669 16.4464 12.1187 16.875 12.3499V8.19998H3.125V14.1667C3.125 16.55 4.28333 17.7083 6.66667 17.7083H11.5167C11.4468 17.58 11.3843 17.4478 11.3293 17.3124C11.1414 16.8498 11.0417 16.349 11.0417 15.8333ZM14.9958 13.125C13.5061 13.1273 12.2917 14.3431 12.2917 15.8333C12.2917 16.325 12.425 16.8083 12.6833 17.225C12.825 17.475 13.0083 17.6833 13.2083 17.8583C13.7083 18.3083 14.3333 18.5417 15 18.5417C15.9583 18.5417 16.825 18.05 17.3167 17.2333C17.575 16.8083 17.7083 16.3333 17.7083 15.8333C17.7083 15.2063 17.4834 14.5948 17.0785 14.096C17.0598 14.0792 17.0419 14.061 17.025 14.0417C16.5093 13.4594 15.7693 13.1262 14.9958 13.125Z" fill="white"/>
</svg>
