<svg width="20" height="20" viewBox="0 0 20 20" fill="none" xmlns="http://www.w3.org/2000/svg">
<path fill-rule="evenodd" clip-rule="evenodd" d="M9.99984 10.2084C9.63317 10.2084 9.26651 10.1167 8.93317 9.94175L3.50817 7.01675C3.0165 6.75008 2.70817 6.22508 2.70817 5.64175C2.70817 5.05841 3.0165 4.53341 3.50817 4.26675L8.93317 1.34175C9.59984 0.983415 10.3998 0.983415 11.0582 1.34175L16.4832 4.26675C16.9748 4.53341 17.2832 5.05841 17.2832 5.64175C17.2832 6.22508 16.9748 6.75008 16.4832 7.01675L11.0582 9.94175C10.7332 10.1251 10.3665 10.2084 9.99984 10.2084ZM9.99984 2.31675C9.84151 2.31675 9.67484 2.35841 9.52484 2.44175L4.10817 5.35841C3.9665 5.43341 3.95817 5.59175 3.95817 5.64175C3.95817 5.69175 3.9665 5.85008 4.10817 5.91675L9.53317 8.84175C9.83317 9.00008 10.1748 9.00008 10.4748 8.84175L15.8998 5.91675C16.0332 5.84175 16.0498 5.68341 16.0498 5.64175C16.0498 5.59175 16.0415 5.43341 15.8998 5.36675L10.4748 2.44175C10.3248 2.35841 10.1582 2.31675 9.99984 2.31675Z" fill="currentColor"/>
<path fill-rule="evenodd" clip-rule="evenodd" d="M8.14984 18.9334C7.9165 18.9334 7.67484 18.8751 7.45817 18.7667L2.40817 16.2501C1.5665 15.8251 1.0415 14.9751 1.0415 14.0334V9.26673C1.0415 8.72506 1.3165 8.23339 1.77484 7.95006C2.2415 7.66673 2.79984 7.64173 3.28317 7.88339L8.33317 10.4001C9.17484 10.8251 9.69984 11.6667 9.69984 12.6167V17.3834C9.69984 17.9251 9.42484 18.4167 8.9665 18.7001C8.7165 18.8584 8.43317 18.9334 8.14984 18.9334ZM2.5915 8.96673C2.52484 8.96673 2.4665 8.99173 2.43317 9.00839C2.38317 9.04173 2.2915 9.11673 2.2915 9.26673V14.0334C2.2915 14.5001 2.54984 14.9251 2.9665 15.1334L8.00817 17.6584C8.1415 17.7251 8.24984 17.6751 8.29984 17.6501C8.34984 17.6167 8.4415 17.5417 8.4415 17.3917V12.6251C8.4415 12.1584 8.18317 11.7334 7.7665 11.5251L2.72484 9.00006C2.67484 8.97506 2.63317 8.96673 2.5915 8.96673Z" fill="currentColor"/>
<path fill-rule="evenodd" clip-rule="evenodd" d="M11.0333 18.7001C11.2833 18.8584 11.5666 18.9334 11.8499 18.9334C12.0833 18.9334 12.3249 18.8834 12.5416 18.7668L17.5833 16.2418C18.4249 15.8168 18.9499 14.9668 18.9499 14.0251V9.25844C18.9499 8.71677 18.6749 8.2251 18.2166 7.94177C17.7583 7.65844 17.1916 7.63344 16.7083 7.8751L11.6666 10.4001C10.8249 10.8251 10.2999 11.6751 10.2999 12.6168V17.3834C10.2999 17.9251 10.5749 18.4168 11.0333 18.7001ZM17.2749 9.0001C17.3249 8.9751 17.3666 8.96677 17.4083 8.96677C17.4749 8.96677 17.5333 8.99177 17.5666 9.00844C17.6166 9.04177 17.7083 9.11677 17.7083 9.26677V14.0334C17.7083 14.5001 17.4499 14.9251 17.0333 15.1334L11.9916 17.6584C11.8583 17.7251 11.7499 17.6834 11.6999 17.6501C11.6499 17.6168 11.5583 17.5418 11.5583 17.3918V12.6251C11.5583 12.1501 11.8166 11.7334 12.2333 11.5251L17.2749 9.0001Z" fill="currentColor"/>
</svg>
