<svg width="24" height="24" viewBox="0 0 24 24" fill="none" xmlns="http://www.w3.org/2000/svg">
<path fill-rule="evenodd" clip-rule="evenodd" d="M2 7C2 4.79086 3.79086 3 6 3H18C20.2091 3 22 4.79086 22 7V10C22 10.5523 21.5523 11 21 11C20.4477 11 20 10.5523 20 10V7C20 5.89543 19.1046 5 18 5H6C4.89543 5 4 5.89543 4 7V15C4 16.1046 4.89543 17 6 17H8V19L10.4 17.2C10.5731 17.0702 10.7836 17 11 17H12C12.5523 17 13 17.4477 13 18C13 18.5523 12.5523 19 12 19H11.3333L7.6 21.8C7.29698 22.0273 6.89157 22.0638 6.55279 21.8944C6.214 21.725 6 21.3788 6 21V19C3.79086 19 2 17.2091 2 15V7ZM16 18C16 17.4477 16.4477 17 17 17L20.5858 17L19.2929 15.7071C18.9024 15.3166 18.9024 14.6834 19.2929 14.2929C19.6834 13.9024 20.3166 13.9024 20.7071 14.2929L23.7071 17.2929C24.0976 17.6834 24.0976 18.3166 23.7071 18.7071L20.7071 21.7071C20.3166 22.0976 19.6834 22.0976 19.2929 21.7071C18.9024 21.3166 18.9024 20.6834 19.2929 20.2929L20.5858 19L17 19C16.4477 19 16 18.5523 16 18Z" fill="black"/>
</svg>
