<svg width="20" height="20" viewBox="0 0 20 20" fill="none" xmlns="http://www.w3.org/2000/svg">
<path fill-rule="evenodd" clip-rule="evenodd" d="M15.1435 15.4173C15.1893 15.3721 15.2347 15.3263 15.2797 15.2799C15.326 15.235 15.3718 15.1896 15.4171 15.1437C17.1228 13.4153 18.073 11.0098 18.073 8.4143C18.073 7.98035 18.0073 7.352 17.9394 6.70304C17.8669 6.01019 17.792 5.29385 17.792 4.76555C17.792 4.39355 17.9273 4.15683 18.0626 3.92011C18.1764 3.72103 18.2901 3.52194 18.3234 3.2424C18.4247 2.3925 17.6074 1.57516 16.7575 1.67651C16.478 1.70984 16.2789 1.8236 16.0799 1.93736C15.8431 2.07265 15.6064 2.20794 15.2344 2.20795C14.7245 2.20796 14.0682 2.13234 13.4097 2.05646C12.747 1.9801 12.0821 1.90349 11.5622 1.90349C8.67425 1.90349 6.32673 2.80417 4.69939 4.42576C4.65366 4.47133 4.60849 4.51747 4.5639 4.56418C4.5172 4.60877 4.47106 4.65393 4.42549 4.69966C2.8039 6.327 1.90322 8.67452 1.90322 11.5625C1.90322 12.0824 1.97983 12.7473 2.0562 13.41C2.13207 14.0685 2.20769 14.7248 2.20768 15.2347C2.20767 15.6067 2.07238 15.8434 1.93709 16.0801C1.8009 16.3184 1.6647 16.5568 1.66652 16.9331C1.67011 17.6761 2.32377 18.3298 3.06678 18.3334C3.44317 18.3353 3.68151 18.1991 3.91984 18.0628C4.15656 17.9276 4.39328 17.7923 4.76528 17.7923C5.29358 17.7923 6.00992 17.8672 6.70278 17.9397C7.35173 18.0076 7.98008 18.0733 8.41403 18.0733C11.0096 18.0733 13.4151 17.123 15.1435 15.4173ZM4.99421 8.68406C4.71449 8.52422 4.61731 8.16789 4.77715 7.88817C6.34083 5.15173 9.46285 3.59072 12.5902 3.98164C12.9099 4.0216 13.1367 4.31314 13.0967 4.63282C13.0567 4.9525 12.7652 5.17926 12.4455 5.1393C9.78549 4.80679 7.12011 6.13948 5.7901 8.467C5.63026 8.74672 5.27393 8.8439 4.99421 8.68406ZM8.37899 16.0344C8.23492 15.7463 8.35171 15.3959 8.63987 15.2518L9.36329 14.8901C9.65145 14.746 10.0018 14.8628 10.1459 15.151C10.29 15.4391 10.1732 15.7895 9.88504 15.9336L9.16162 16.2953C8.87346 16.4394 8.52307 16.3226 8.37899 16.0344ZM16.6253 4.7655C16.6253 4.11643 16.8617 3.67309 17.015 3.40209C17.1607 3.14467 17.1618 3.13374 17.1645 3.10855C17.1647 3.1072 17.1648 3.1058 17.165 3.10433C17.1659 3.09644 17.1648 3.02031 17.0722 2.92771C16.9796 2.83511 16.9035 2.83403 16.8956 2.83497C16.8942 2.83514 16.8928 2.83529 16.8914 2.83544C16.8662 2.83813 16.8553 2.8393 16.5978 2.98498C16.3268 3.13833 15.8835 3.37459 15.2344 3.37461C14.6566 3.37463 13.9451 3.29259 13.3205 3.22057L13.2698 3.21473C12.5863 3.13597 11.9988 3.07015 11.5622 3.07015C8.8462 3.07015 6.77733 3.93527 5.40774 5.36981L5.38908 5.38936L5.36954 5.40802C3.935 6.7776 3.06989 8.84647 3.06989 11.5625C3.06989 11.9991 3.1357 12.5866 3.21446 13.2701L3.2203 13.3208C3.29232 13.9453 3.37436 14.6569 3.37434 15.2347C3.37432 15.9188 3.10816 16.3831 2.96276 16.6368C2.95792 16.6452 2.95322 16.6534 2.94867 16.6614C2.8315 16.8664 2.83203 16.8849 2.83299 16.9184C2.83307 16.9213 2.83316 16.9243 2.83317 16.9275C2.83331 16.9562 2.84867 17.0199 2.91434 17.0856C2.98001 17.1513 3.04376 17.1666 3.07249 17.1668C3.0757 17.1668 3.07868 17.1669 3.08154 17.167C3.11506 17.1679 3.13356 17.1685 3.33854 17.0513C3.34652 17.0467 3.35473 17.042 3.36318 17.0372C3.61679 16.8918 4.08108 16.6256 4.76523 16.6256C5.35061 16.6256 6.10576 16.7043 6.75813 16.7724L6.75904 16.7725C7.46113 16.8459 8.04191 16.9066 8.41403 16.9066C10.7871 16.9066 12.9411 16.0163 14.442 14.4679L14.4546 14.4549L14.4676 14.4422C16.016 12.9414 16.9063 10.7874 16.9063 8.4143C16.9063 8.04218 16.8456 7.4614 16.7723 6.75931L16.7722 6.7584C16.704 6.10603 16.6253 5.35088 16.6253 4.7655Z" fill="#007BFB"/>
</svg>
